<svg xmlns="http://www.w3.org/2000/svg" viewBox="0 0 533.5 544.3">
  <path fill="#4285F4" d="M533.5 278.4c0-17.4-1.6-34.1-4.6-50.2H272.1v95.1h146.9c-6.4 34.5-25.7 63.7-54.8 83.2v68h88.7c51.9-47.8 81-118.3 81-196.1z"/>
  <path fill="#34A853" d="M272.1 544.3c73.7 0 135.6-24.5 180.8-66.5l-88.7-68c-24.6 16.5-56.1 26.3-92.1 26.3-70.9 0-131-47.9-152.4-112.1H28.4v70.5c45 89.4 137.7 149.8 243.7 149.8z"/>
  <path fill="#FBBC05" d="M119.7 324c-10.6-31.5-10.6-65.5 0-97v-70.5H28.4c-39.2 78.1-39.2 169.9 0 248l91.3-70.5z"/>
  <path fill="#EA4335" d="M272.1 107.7c39.9-.6 78.3 14.5 107.7 42.3l80.3-80.3C415.4 24.8 344.9-2.7 272.1 0.2 166.1 0.2 73.4 60.6 28.4 150l91.3 70.5c21.4-64.2 81.5-112.1 152.4-112.8z"/>
</svg>
